<svg width="20" height="20" viewBox="0 0 20 20" fill="none" xmlns="http://www.w3.org/2000/svg">
<g id="Edit " clip-path="url(#clip0_139_1389)">
<g id="Vector">
<path d="M17.5 17C17.5 17.275 17.275 17.5 17 17.5H3C2.725 17.5 2.5 17.275 2.5 17V3.00004C2.5 2.72504 2.725 2.50004 3 2.50004H9.5C9.775 2.50004 10 2.27504 10 2.00004V1.33337C10 1.05837 9.775 0.833374 9.5 0.833374H1.83333C1.28333 0.833374 0.833334 1.28337 0.833334 1.83337V18.1667C0.833334 18.7167 1.28333 19.1667 1.83333 19.1667H18.1667C18.7167 19.1667 19.1667 18.7167 19.1667 18.1667V10.5167C19.1667 10.2417 18.9417 10.0167 18.6667 10.0167H18C17.725 10.0167 17.5 10.2417 17.5 10.5167V17Z" fill="#003EDE"/>
<path d="M15.5057 3.35681L15.0343 3.82822C14.8391 4.02348 14.8391 4.34006 15.0343 4.53533L15.5057 5.00673C15.701 5.20199 16.0176 5.20199 16.2129 5.00673L16.6843 4.53533C16.8795 4.34006 16.8795 4.02348 16.6843 3.82822L16.2129 3.35681C16.0176 3.16155 15.701 3.16155 15.5057 3.35681Z" fill="#003EDE"/>
<path d="M7.39163 13.8167L6.29163 13.7167L6.21663 12.6334L13.6416 5.21671C13.8333 5.02504 14.15 5.02504 14.35 5.21671L14.825 5.69171C15.0166 5.88337 15.0166 6.20004 14.825 6.40004L7.39163 13.8167Z" fill="#003EDE"/>
</g>
</g>
<defs>
<clipPath id="clip0_139_1389">
<rect width="20" height="20" fill="white"/>
</clipPath>
</defs>
</svg>
