<svg width="20" height="20" viewBox="0 0 20 20" fill="none" xmlns="http://www.w3.org/2000/svg">
<g id="Matrix">
<g id="Vector">
<path d="M8.30004 19.1667H3.33337C2.78337 19.1667 2.33337 18.7167 2.33337 18.1667V10.15C2.33337 9.59999 2.78337 9.14999 3.33337 9.14999H8.30004C8.85004 9.14999 9.30004 9.59999 9.30004 10.15V18.1667C9.30004 18.7167 8.85004 19.1667 8.30004 19.1667ZM4.50004 17.5H7.13337C7.40837 17.5 7.63337 17.275 7.63337 17V11.3167C7.63337 11.0417 7.40837 10.8167 7.13337 10.8167H4.50004C4.22504 10.8167 4.00004 11.0417 4.00004 11.3167V17C4.00004 17.275 4.22504 17.5 4.50004 17.5Z" fill="white"/>
<path d="M8.30004 7.74166H3.33337C2.78337 7.74166 2.33337 7.29166 2.33337 6.74166V1.83333C2.33337 1.28333 2.78337 0.833328 3.33337 0.833328H8.30004C8.85004 0.833328 9.30004 1.28333 9.30004 1.83333V6.74166C9.30004 7.29166 8.85004 7.74166 8.30004 7.74166ZM4.50004 6.07499H7.13337C7.40837 6.07499 7.63337 5.84999 7.63337 5.57499V2.99999C7.63337 2.72499 7.40837 2.49999 7.13337 2.49999H4.50004C4.22504 2.49999 4.00004 2.72499 4.00004 2.99999V5.57499C4.00004 5.84999 4.22504 6.07499 4.50004 6.07499Z" fill="white"/>
<path d="M16.6667 10.85H11.7001C11.1501 10.85 10.7001 10.4 10.7001 9.84999V1.83333C10.7001 1.28333 11.1501 0.833328 11.7001 0.833328H16.6667C17.2167 0.833328 17.6667 1.28333 17.6667 1.83333V9.84999C17.6667 10.4 17.2167 10.85 16.6667 10.85ZM12.8667 9.18333H15.5001C15.7751 9.18333 16.0001 8.95833 16.0001 8.68333V2.99999C16.0001 2.72499 15.7751 2.49999 15.5001 2.49999H12.8667C12.5917 2.49999 12.3667 2.72499 12.3667 2.99999V8.68333C12.3667 8.95833 12.5917 9.18333 12.8667 9.18333Z" fill="white"/>
<path d="M16.6667 19.1667H11.7001C11.1501 19.1667 10.7001 18.7167 10.7001 18.1667V13.2583C10.7001 12.7083 11.1501 12.2583 11.7001 12.2583H16.6667C17.2167 12.2583 17.6667 12.7083 17.6667 13.2583V18.1667C17.6667 18.7167 17.2167 19.1667 16.6667 19.1667ZM12.8667 17.5H15.5001C15.7751 17.5 16.0001 17.275 16.0001 17V14.425C16.0001 14.15 15.7751 13.925 15.5001 13.925H12.8667C12.5917 13.925 12.3667 14.15 12.3667 14.425V17C12.3667 17.275 12.5917 17.5 12.8667 17.5Z" fill="white"/>
</g>
</g>
</svg>
